<svg xmlns="http://www.w3.org/2000/svg" width="213" height="123" viewBox="0 0 213 123" fill="none"><g clip-path="url(#clip0_1_2)"><path d="M131.294 122.591H0.000534058V97.8853H131.294V122.591Z" fill="#A7AAAC"></path><path d="M0 86.2414H32.2493L20.7093 51.8134H27.1907L41.892 86.076H95.008L82.2027 55.7854L86.6293 49.3307L105.283 85.5787H159.031L122.3 2.79474e-05H98.4347L78.5667 44.5307L60.5453 0.00535835H35.252L22.764 32.7787V44.3654H17.0733L0 86.2414Z" fill="#164F7A"></path><path d="M164.119 0.0472471H212.018V69.2606C212.018 77.2872 210.125 85.1566 204.826 90.9566C200.735 95.4326 193.967 99.1939 185.618 99.1939H145.466C145.466 99.1939 164.278 93.4006 164.278 83.3032C164.278 73.2072 163.645 -0.448753 164.119 0.0472471Z" fill="#164F7A"></path></g><defs><clipPath id="clip0_1_2"><rect width="212.018" height="122.591" fill="white"></rect></clipPath></defs></svg>