<svg xmlns="http://www.w3.org/2000/svg" viewBox="0 0 414.87 153.51"><defs><style>.cls-1{fill:#fff;}</style></defs><g id="Layer_2" data-name="Layer 2"><g id="Layer_1-2" data-name="Layer 1"><path class="cls-1" d="M92.11,148.92a11.49,11.49,0,0,0,8.63,1.46,6.23,6.23,0,0,0,2.94-3.22,3.59,3.59,0,0,0-1.94-4.09c-3-1.34-7.17-1.64-8.46-5.42a8.75,8.75,0,0,1,.94-4.08,10.45,10.45,0,0,1,9.75-1c.88.66.47,2,.29,2.8-2.29-.73-5.17-2-7.46-.43a2.17,2.17,0,0,0-.88,2.92c3.59,2.81,11.52,2.69,10.17,9.81-.47,2.87-3.29,4.63-5.76,5.24A11.45,11.45,0,0,1,92,151.29a3,3,0,0,1,.13-2.37"></path><path class="cls-1" d="M114.66,132c4.35-.54,8,.43,12.16.31a2.33,2.33,0,0,1,.29,2c-2,.67-4.69-.85-5.63,1.35l-.3,17.1c-.65.25-1.82.25-2-.62v-17.4l-.41-.43h-5c-.47-.73-.59-2.86.94-2.32"></path><path class="cls-1" d="M136.1,132.41c4.11-.43,7.57.24,11.68,0,.48.49.3,1.28.48,1.9l-.48.3-9.15.12a6.24,6.24,0,0,0,.28,5.85,47.75,47.75,0,0,1,8.87-.13c.54.43.23,1.28.3,1.89l-.41.31c-3.29.61-6.23-.61-9.28.42-.71,2.25.11,4.45-.18,7,1.12,1.09,3.06.35,4.23.72l.71-.24,4.63.12c.77.49.41,1.52.3,2.19a111,111,0,0,1-12.1,0c.47-7.18-.35-13.09.12-20.46"></path><path class="cls-1" d="M167.7,141.61c-1.18-.12-2.35.19-3.53-.42.53-1.77,1.06-3.84,2.24-5.12.64,1.71,1.64,3.22,1.82,5.12Zm7.46,10.23c-2.59-6.64-4.93-13.4-7.87-19.86-.77-.11-2-.48-2.59.31-2.46,6.77-4.93,13.58-7.28,20.47.35.78,1.05.18,1.83.42,1.81-2.86,1.93-6.52,4.22-9.08l6.05.13c1.76,2.68,2.18,5.9,3.64,8.65l1.29.12c.65.06.77-.55.71-1.16"></path><path class="cls-1" d="M185.85,132.54c.58.18,1.93-1,2,.48.23,2.56-.53,5.24.11,7.43h.71c2.87-2.8,5.29-5.18,8.05-7.91l2.69.18v.55c-2.93,3-6.22,5.41-8.63,8.65,2.29,4,6.17,7.3,8.23,11.26a3,3,0,0,1-2.71,0c-2.34-3.53-5.28-6.82-7.87-10.23-.76-.24-.7.61-.88,1l-.29,9c-.6.18-1.65.37-1.94-.24-.18-6.89.29-13.34.53-20.22"></path><path class="cls-1" d="M209.69,132.41c.35-.54,1.06-.18,1.53-.3,1.41,2.31-.35,5.72,1,8.22,3.11.43,6.11-.25,9.34,0l.7-.91c.18-2.5.06-4.26.12-6.71.53-.3,1.23-.66,1.82-.3.65,7.25,0,13.16,0,20.35a5.1,5.1,0,0,1-1.7.24l-.41-.55A47.19,47.19,0,0,0,222,143a52.46,52.46,0,0,0-9.75-.18l-.53.73-.3,9.26c-.4.48-1.11.18-1.7.24l-.29-.55c-.11-7.49.18-13.7.29-20"></path><path class="cls-1" d="M249.87,145c-1,2.62-3.29,5.24-6.22,5.6-2.53,0-5.06-.36-6.58-2.5a9.33,9.33,0,0,1-1.42-8.34A8.33,8.33,0,0,1,239,135c2.59-1.59,5.7-.8,8.17.42a9.84,9.84,0,0,1,2.7,9.5m-.7-11.08c-3.3-2.69-7.35-2.87-11.17-1.16-2.81,1.46-4.4,4.5-5.05,7.43a11.44,11.44,0,0,0,4.64,11.69c3.12,1.29,7.41,2.07,10.29-.12a12,12,0,0,0,4.69-7.92,12.16,12.16,0,0,0-3.4-9.92"></path><path class="cls-1" d="M262.44,132.11c.41-.67.94.12,1.52-.13l.42.56.18,14.19A5,5,0,0,0,267.2,150c.87.84,1.93-.12,2.81.72,2.06-.55,4.23-1.77,4.83-4.07l.1-14.5c.42-.49,1.24-.3,1.71-.13l.41.73L277,147.16a7,7,0,0,1-4.11,5.29c-3.12,1.34-6.7.24-9.16-1.89a8.48,8.48,0,0,1-1.53-4.13Z"></path><path class="cls-1" d="M287.11,148.79c2.76,1.34,6.16,2.44,9.16.74a4.33,4.33,0,0,0,1.94-4.57c-2.58-4.44-12.34-2.44-9.69-10.35,1.12-2.07,3.35-2.87,5.46-3.05,1.7.3,3.76.18,4.93,1.46l-.11,2c-2.06-.55-5-1.53-7.23-.31-1.36.61-.88,2.26-.42,3.24,3.24,2.43,9.7,2.3,9.35,8.21a6.53,6.53,0,0,1-3.7,6c-2.88,1.59-7,.92-9.69-.6,0-.92-.65-1.9,0-2.75"></path><path class="cls-1" d="M311.3,132c4.35-.42,7.05.19,11.46,0a2.73,2.73,0,0,1,.12,2l-9.46.61a10.76,10.76,0,0,0,0,5.11c2.93.56,6.05.19,9.34.31a2.58,2.58,0,0,1,.12,2.18l-9.58.31c-.7,2.26.12,4.94-.11,7l.93.72,8.76.31c.11.61.47,1.71-.3,2.19H311.49l-.42-.3v-20Z"></path><path class="cls-1" d="M267.53,80.72c1.46.14,4.38-.55,5,1.65a21.29,21.29,0,0,1,1.07,7.84c-2.25,1.37-4.24,4.27-6.77,1.64-2.78-1.09-1.32-4-1.19-6.18,2.39-.82,1.47-3.3,1.86-5M204.92,67.44c2.71-.38,5.8-.26,7,2.82a9.4,9.4,0,0,1-5.3,8.94c-1.24-.38-2.72-.64-3.22-2.17-.48-3.19-2.21-7.55,1.49-9.59m-.79,21.22c2.09,1,4.2-.84,5.94.85,2.21,2.54,1.63,6.4.59,9.3-.59,1.33-1.87,3-3.39,3.15-1.39-.49-3.61-.49-4-2.55-1.39-3.62.12-7.36.82-10.75M21.54,77.75c1.91-2.36,3.75-5,6.77-5.72,3.53.46,5.74,3.13,8,5.72.89,5.12.74,10.46-1.25,15-1.4,1.84-3.38,4-5.82,3.89-3.53.92-5.44-2-7.06-4.42-.44-3.67-1.47-7.17-.59-10.76Zm36.67.45,0-.75c0-.15,0-.28,0-.41a11.85,11.85,0,0,0-4.91-9.89l-.61-.44L52.44,66c-.65-1.67-2.15-2.85-3.89-4.21l-.76-.61a10.57,10.57,0,0,1-4-2.17c-1.23-1-1.85-1.39-2.57-1.32l-1,.09-.78-.56c-2.66-1.94-6.91-1.91-10.66-1.89H27.16l-.4-.14c-.49-.16-.91,0-2,.48a9.33,9.33,0,0,1-3.82,1,17.41,17.41,0,0,1-5,2.12,10.75,10.75,0,0,0-3.56,1.46A9.75,9.75,0,0,1,8.1,64.57c-1.46.86-2.07,1.29-2.28,2.09l-.3,1.09-1,.51c-.3.16-.51.65-.87,1.64a10.28,10.28,0,0,1-1.86,3.23L.08,79c0,.64,0,3.16,0,3.16,0,1,0,2,0,3.07,0,4.21.39,8.28,2.85,11.12l.33.38.16.48c.92,2.74,3.66,9.29,9.15,10.8l.75.2.51.58c1.63,1.9,4.4,2.51,7.07,3.09l1.48.35,1.26.07a7.61,7.61,0,0,1,3.29.61c4.45.53,10.72.84,14.64-2.36l.71-.58h.91a4.67,4.67,0,0,0,2-.82l2.28-1.1-.41.18c2.12-1.18,3.59-3.12,5.14-5.17a26.57,26.57,0,0,1,5-5.43c.52-.37.63-1.2.73-2.86a9.53,9.53,0,0,1,1.77-5.59c0-.86.08-2,.08-2,.06-1,.1-2,.1-3a10.05,10.05,0,0,0-1.25-5.47ZM170.34,61.11a28.45,28.45,0,0,0-.43-4.53,9.79,9.79,0,0,1-4.48.31c-1.66-.18-2-.13-2.41.33L161.1,59.4s-1.5-1.73-1.76-2h-.58a6.39,6.39,0,0,1-3.34-.62l-1.14,0c-.8,0-1.18,0-1.39.11l-.57.42-.71.06a33.59,33.59,0,0,1-8.67-.81,9.32,9.32,0,0,1-7.2.16,6,6,0,0,0-3.34.24c-.06,1.75-.18,5.52-.18,5.56a9.83,9.83,0,0,1,.17,1.51,24.15,24.15,0,0,1-.21,2.76A21.28,21.28,0,0,0,132,69a1.89,1.89,0,0,0,.35,1.3,4.32,4.32,0,0,1,1.07,0,10.6,10.6,0,0,1,4.2-.17l1.91.19.49.29c2.34,1.37,2.68,3.64,2.68,5.41,0,.4,0,.77,0,1.11s0,.65,0,1a2.42,2.42,0,0,0,.14,1l.66,1-.39,1.17a10,10,0,0,0-.48,3.26,34.3,34.3,0,0,0,.38,4.28,34.45,34.45,0,0,1,.44,4.89,14.58,14.58,0,0,1-.88,5,16.49,16.49,0,0,1,.41,3.56,37,37,0,0,1-.33,4.41,35.35,35.35,0,0,0-.31,3.85,11.12,11.12,0,0,0,.39,2.8,7.84,7.84,0,0,0,1.89.13l.42-.14a5.08,5.08,0,0,1,3.94-.18l2.09.18c1.4.22,1.94.26,2.42-.07,2.55-1.83,4.89-.76,6.15-.18l.33.14a3,3,0,0,0,.15-.57,5.79,5.79,0,0,0-.44-2.1l-.2-.48.12-3.11c.07-1.68.14-3.39.14-5.08a34.27,34.27,0,0,0-.49-6.23l-.17-.92.46-.83a3.22,3.22,0,0,0,.36-1.63,17.87,17.87,0,0,0-.26-2.43,19.87,19.87,0,0,1-.32-3.12,7.46,7.46,0,0,1,0-1l0-.27.08-.25a7,7,0,0,0,.3-2.13,22,22,0,0,0-.19-2.47,27.48,27.48,0,0,1-.21-3,10.21,10.21,0,0,1,.93-4.45c2-4.61,6-3.78,7.85-3.39A4.24,4.24,0,0,0,170,70a8,8,0,0,0-.35-1.74l-.44-1.62.32-.79a13,13,0,0,0,.77-4.71m-51.7,44.24-.34-.47v-3.77c0-.52,0-1,0-1.55a14.55,14.55,0,0,0-1-6.27l-.66-1.37.89-1.23a6.15,6.15,0,0,0,1-3.74,30.09,30.09,0,0,0-.39-4l-.43-3.65.81-2.26c0-.38,0-.76,0-1.14a42.08,42.08,0,0,0-.42-5.18,45.84,45.84,0,0,1-.42-5.29A17.54,17.54,0,0,1,118.3,61c-.06-.86-.17-2.6-.17-2.61a7.48,7.48,0,0,0-.33-2.63,2,2,0,0,0-1.35.32l-1.33,1.56-1.81-1a8.34,8.34,0,0,0-3.6-.65l-1.44-.12-.84.68-.26.14a4.81,4.81,0,0,1-4.76-.44,6.66,6.66,0,0,1-1.87.12,13.84,13.84,0,0,0-.3,2.28c0,.75,0,1.5.08,2.3s.1,1.66.1,2.56a18.91,18.91,0,0,1-.37,3.47,43.21,43.21,0,0,1,.39,5.79c0,1.47-.06,2.9-.11,4.31s-.1,2.75-.1,4.1a32.64,32.64,0,0,0,.65,7l0,.73-.3,2.82c-.11,2.25-.29,5-2.48,7,.05,0,.1-.07.15-.12l-.31.31c.06-.06.09-.13.16-.19-1.46,1.59-3.43,1.73-5.9.36l-.38-.21.24.1c-3.37-1.19-3.93-4.63-4.23-6.49l-.16-1,.12-.51a.88.88,0,0,0,0-.17,4.75,4.75,0,0,0-.36-1.36,8.48,8.48,0,0,1-.57-2.75,4.69,4.69,0,0,1,.53-2,26.25,26.25,0,0,0,.32-4,25.51,25.51,0,0,0-.35-4.26l-.13-.84.39-.76A4.83,4.83,0,0,0,87.94,73c0-.44,0-.9,0-1.33V70a9.75,9.75,0,0,1-1.09-4.39,23.66,23.66,0,0,1,.42-3.91,20.65,20.65,0,0,0,.36-3.16,5.19,5.19,0,0,0-.36-1.87,6.3,6.3,0,0,0-2.63.55l-1.07.46-1.05-.51c-1.64-.78-4.81-1.87-7.58-.3l-.39.21-.43.08a7.69,7.69,0,0,1-3.7-.37,6.34,6.34,0,0,0-.2,1.66c0,.71.06,1.46.1,2.11,0,0,0,.7.07,1.16a8.16,8.16,0,0,1,.75,3.3,17.49,17.49,0,0,1-.44,3.47,13.12,13.12,0,0,0-.38,2.6,3.93,3.93,0,0,0,.27,1.45l.21.46-.14,4.72c0,1.73-.11,3.49-.11,5.21a35.16,35.16,0,0,0,.68,7.64l.17.72-.24.69a5,5,0,0,0-.27,1.68,17.47,17.47,0,0,0,.71,4s.35,1.73.57,2.88a11.7,11.7,0,0,1,3,5.28c.75,2.27,1.14,3.11,2.45,3.53a11.31,11.31,0,0,1,4.44,1.93c1.52,1,2.23,1.36,3.08,1.16l1-.23.87.48c1.14.62,2.78.49,4.51.34L93,113a9.86,9.86,0,0,0,2.23-1c1.8-1,4.06-2.23,7-1.53l1.1.26.54,1c.5.9,1.6,1,3.81,1.15l1.38.11.46-.09a8.5,8.5,0,0,1,3-.27l1.17.12c2.85.31,6,.54,8.11-.6-.08-1.66-1-3.24-2.11-5Zm51.51-48.82.32-.12c-.13.06-.27.07-.4.13Zm129.48,54.34a32.42,32.42,0,0,1-3.32-8.47,29.15,29.15,0,0,0-2.62-7.11l-.29-.51,0-.58a11.66,11.66,0,0,0-2.64-6.35l.28.31c-2-1.85-1.9-4.23-1.84-5.81,0-1,0-1.66-.22-2-3-2.54-3.35-6-3.59-8.81a10.66,10.66,0,0,0-1-4.64,12.14,12.14,0,0,1-1.86-5.37,9.3,9.3,0,0,0-.78-2.93l-.09-.16-.07-.17c-.43-1.07-.5-1.24-3.29-.75a12.8,12.8,0,0,1-5.27,0,3.12,3.12,0,0,1-1-.07l-.46.13a6.4,6.4,0,0,1-4.64,0l-3.56.15a32.54,32.54,0,0,1-9.22-.28l-.28.13a4.07,4.07,0,0,1-4.68-.14l-.79-.21a4.86,4.86,0,0,0-.44,2,5.59,5.59,0,0,0,.12,1.14,8.28,8.28,0,0,1,.72,3.28,18,18,0,0,1-.48,3.67,15.43,15.43,0,0,0-.36,2.57,2.44,2.44,0,0,0,.49,1.51,5,5,0,0,0,.85.06,5.84,5.84,0,0,1,4.79,2l.6.94,0,3v.84c0,2.35-.3,5.15-2.27,7.35a13.39,13.39,0,0,1-1.81,5.43,7.29,7.29,0,0,0-1.2,3.21c0,.09,0,.16,0,.23l.1,1.19-.87.84c-1.61,1.57-2.18,4.12-2.78,6.81l-.44,2-1,.09a13,13,0,0,1-2.23,5.82,10.14,10.14,0,0,0-1.42,3.21,10.55,10.55,0,0,0,1.29-.16,11.31,11.31,0,0,1,3.4-.17,8,8,0,0,1,4.17-.24l.89.09a7.47,7.47,0,0,1,5.29-.09c1.15.32,1.44.3,1.67.17a2.9,2.9,0,0,0,.33-.83l.26-1.12.73-.68.31-.75a6.48,6.48,0,0,1,1.88-3l.09-.08.09-.08c3.92-2.73,8.78-2.23,12.7-1.82l.71.06c4.69-.18,6.8,4.15,8.06,6.76l.38.72a5,5,0,0,0,4-.57l1.37-.79,1.31.87c1.23.83,2.8.6,5.22.13l3.49-.64.55,1.24.41.07a2.6,2.6,0,0,0,.7-.48,11.77,11.77,0,0,0-.26-1.78s0-.12-.05-.24m114.72-5.79a15.06,15.06,0,0,0-.29-2.46,19.17,19.17,0,0,1-.38-3.38,10.89,10.89,0,0,1,.2-1.84l-2.48-1.89c-2.68-2-5.22-4-8-4.68l-1.49-.46-.64-2.69a16.76,16.76,0,0,1-.64-4.07,7.92,7.92,0,0,1,.51-2.8A2,2,0,0,0,401,81l.11-.37a.77.77,0,0,0,0,.15c.57-2.2,2.37-3.42,3.71-4.32l.29-.2c1.39-2.82,3.73-4.43,5.86-5.8a10.75,10.75,0,0,0,3.61-3.22,5.22,5.22,0,0,0-1.72-2l-.74-.61-.16-1c-.45-2.69-3.5-4.56-6.19-6.21l-.53-.33-.55.09c-2.24.28-2.49.48-2.61,1l-.32,1.28-1.24.48a13.51,13.51,0,0,0-6,5.65l-.56.95L393,66.8c-.28.06-.75.7-1.15,1.24a7.08,7.08,0,0,1-4.16,3.19l-1.3.29-1-.9a4.92,4.92,0,0,1-1.53-3.6,6.73,6.73,0,0,1-1.06-3.41,13.62,13.62,0,0,1,.58-3.51,9.87,9.87,0,0,0,.46-2.48c0-.11,0-.21,0-.32-.47-.59-1.29-.65-4.24.1a16.82,16.82,0,0,1-4.08.68h-1.65l-.43-1-.16,0a9.93,9.93,0,0,1-5.68.2c-.57-.1-1.07-.16-1.59-.21,0,.29-.09.56-.09.56l-.07.59a12.6,12.6,0,0,1,.42,2.86A30.15,30.15,0,0,1,365.9,65a25,25,0,0,0-.3,3.28,6.81,6.81,0,0,0,.5,2.71l.39.87-.29.92a16.74,16.74,0,0,0-.76,4.87,10.47,10.47,0,0,0,.4,3L366,81l-.16,6.37-.14,12.33.14,1.55a19,19,0,0,1,.18,2.26,7.26,7.26,0,0,1-.39,2.43,18.73,18.73,0,0,0-.32,3.49,30.69,30.69,0,0,0,.41,4.57l.45-.13a7.25,7.25,0,0,1,3.45-.59l.66.07.54.38a2.09,2.09,0,0,0,1.32.22l1.69-.52.61.68.38,0c2.54-2,5.14-1,6.48-.37s1.47.56,1.75.37l.47-.27c-.06-.28-.18-.69-.28-1a10.48,10.48,0,0,1-.63-3.19,5.68,5.68,0,0,1,.67-2.72l.17-.31.24-.27a2.24,2.24,0,0,0,.22-1.3c0-.29,0-.58,0-.84s0-.68,0-1a8,8,0,0,1,.56-3.24l1-2.26,2.29.89a9.94,9.94,0,0,1,4.26,3.88l.7.94-.32-.33,2.88,3a21,21,0,0,0,3.37,3.32c2.84.1,4.53,2,5.68,3.27.9,1,1.44,1.61,2.15,1.72l.76.24.42.25a5,5,0,0,0,1.46-.06,7.35,7.35,0,0,1,3.78.26l.16.07.18.1a14.74,14.74,0,0,1,.57-3.12,9,9,0,0,0,.41-2.13,2.56,2.56,0,0,0-.2-1l-.48-1.08.52-1.06a3.86,3.86,0,0,0,.38-1.78M229.25,88.17c-.41-1.45-.61-2-1.35-2.32l-2.12-1,.82-2.19a15.43,15.43,0,0,1,2.28-3.76c1.19-1.56,1.78-2.45,1.78-3.38a2.39,2.39,0,0,0-.09-.63l-.32-1.25.8-1a4.67,4.67,0,0,0,.86-3,15.12,15.12,0,0,0-.43-3.12l-1.34-2.15c-1.78-3-2.75-4.38-4.63-4.44l-1.07,0-.72-.8c-1.85-2-5.52-1.84-8.48-1.69H215a37.73,37.73,0,0,1-10.24,0,22.64,22.64,0,0,1-8,.26,27,27,0,0,0-5.33-.16c-2.32,1.53-4.69.71-6,.17a8.8,8.8,0,0,0-1.23-.44,2.84,2.84,0,0,0-.23.24.32.32,0,0,0-.12.28,5.64,5.64,0,0,0,.3,1.27,9.33,9.33,0,0,1,.5,2.75,5.07,5.07,0,0,1-.91,2.73,5.27,5.27,0,0,0-.22,1.49,17,17,0,0,0,.95,4.61l.29,1-.3.8a16.69,16.69,0,0,0-.94,5.81,27.16,27.16,0,0,0,.47,4.9l.11.58-.16.57a19,19,0,0,0-.6,5.08,48.14,48.14,0,0,0,.88,8.29l.19,1.08-.65.88a5,5,0,0,0-.68,2.86,11.53,11.53,0,0,0,.65,3.75l.47,1.28-.8,1.11a6.56,6.56,0,0,0-.89,3.63,7.3,7.3,0,0,0,.42,2.44c3.2.1,6.1.07,9-1l.88-.33.89.32a13,13,0,0,0,8.5,0l1.22-.44,1.07.71a5,5,0,0,0,1.72.31l1.34.19a29.57,29.57,0,0,1,8-.25,33.07,33.07,0,0,0,4.73.11L227,112c1.34-.53,1.9-1.85,2.7-4a18.27,18.27,0,0,1,1.7-3.66l.49-.75.58-.18c0-.16.2-.57.26-.74,0-.45-.09-.9-.09-1.34,0-1.09.1-2.14.19-3.11s.16-1.8.16-2.54a4.8,4.8,0,0,0-.69-2.74,8,8,0,0,1-3.07-4.8m121.36,13.67a18.08,18.08,0,0,1,.21-2.47,12.41,12.41,0,0,0,.17-1.74,1.68,1.68,0,0,0-.1-.67l-.68-.07a4.78,4.78,0,0,0-1.25-.12l0,0-.77.32-4.65.31a31,31,0,0,1-9.46-.11l-.37-.07L327.65,94l-.36-.6A15.67,15.67,0,0,1,325,85.56a9.71,9.71,0,0,1,1.16-4.73l-.08.12.13-.25a.35.35,0,0,0-.05.13c1.16-2.61,3.53-3.91,5.45-5l1.67-1c2.58-2.66,5.8-2.41,8.2-2.18a8.93,8.93,0,0,0,3.58-.06,7.77,7.77,0,0,1,4.78-.25,9.18,9.18,0,0,0,1.07.14A5.4,5.4,0,0,0,351,72a20.63,20.63,0,0,0-.2-2.2A21.89,21.89,0,0,1,350.6,67a9.73,9.73,0,0,1,.31-2.35,11.56,11.56,0,0,1-.3-2.56c0-.58,0-1.16.06-1.75s0-1.09,0-1.56a4.15,4.15,0,0,0-.51-2.29l-.23,0c-1.06-.13-1.59-.17-1.82,0l-.84.73-1.1-.1a20.13,20.13,0,0,0-4.14.16,20.11,20.11,0,0,1-6.49-.15l-4.7.57c-5.21.49-10.16,1-13.2,4.74l-.47.57-.7.24c-2.85,1-4.83,4-6.75,6.85l-.51.75-.33.26c-3.76,2.85-3.95,7.22-4.17,12.27,0,0-.31,3.9-.39,5a24.59,24.59,0,0,1,1.95,7.7,16.65,16.65,0,0,0,5.64,8.71l.7.53.22.85c.33,1.33,1.7,2.16,3.91,3.36a21.16,21.16,0,0,1,3.58,2.28l.27.22.2.31c.41.61,1.37.72,3.3.78a15.59,15.59,0,0,1,3.73.55,8.86,8.86,0,0,1,5.68,0A6,6,0,0,0,336,114l.4-.09.4,0a8,8,0,0,0,2.46-.38,8.55,8.55,0,0,1,6.3.32l1.65-.15a8.72,8.72,0,0,0,3.33-.61,9.49,9.49,0,0,0,.29-2.5c0-.34,0-.68,0-1s0-.76,0-1.15a16.17,16.17,0,0,1,.45-3.78,7.44,7.44,0,0,1-.64-2.88"></path><path class="cls-1" d="M1.88,37.48c0-.21.78-.73,1.73-1.17s2.45-1.13,3.31-1.56,2.22-1.06,3-1.39l2.87-1.21c.77-.34,2.49-1,3.82-1.57s3.42-1.31,4.61-1.74,3-1.05,4-1.39,2.57-.8,3.47-1,2.94-.83,4.52-1.3,3.76-1.06,4.86-1.3,2.94-.55,4.09-.7,3-.34,4.08-.43,2.42-.25,3-.35,1.31-.21,1.74-.26,2.36-.36,9.52-.69,13.66-.69,14.42-.79l3-.34c.86-.1,3.13-.26,5-.35s4.26-.18,5.21-.18,2.48,0,3.38.09,2.32.17,3.13.26,2.07.3,2.78.44,1.38.57,1.48.95a6.94,6.94,0,0,0,.43,1.22c.15.28.38.71.52.95s.42.63.61.88a7.56,7.56,0,0,0,1.22,1c.48.34,1.37.93,2,1.31a2.27,2.27,0,0,0,1.65.43,4.44,4.44,0,0,1,1.14-.35l1.3-.17a7.86,7.86,0,0,0,1.39-.35c.38-.14,1.59-.65,2.69-1.13s2.51-1.1,3.13-1.39a14.09,14.09,0,0,1,2.43-.78,2.89,2.89,0,0,1,2.43,1.56,8.39,8.39,0,0,0,1.65,2.09,7.56,7.56,0,0,0,1.13.43l2.08.61c.81.24,2.14.59,3,.79a20.71,20.71,0,0,1,2.16.6c.39.15.94.38,1.23.52a1.2,1.2,0,0,0,1.12-.17,13.15,13.15,0,0,1,1.3-.78,7.64,7.64,0,0,1,1.48-.52,3,3,0,0,1,1.39,0c.34.09.61-.06.61-.35a5.25,5.25,0,0,1,.17-1.13c.1-.34.26-.88.35-1.22a4.57,4.57,0,0,1,.52-1.12c.19-.29.46-.69.61-.87a3,3,0,0,1,.7-.62c.24-.13.86-.45,1.38-.69a21.84,21.84,0,0,1,2.09-.78c.62-.19,1.72-.5,2.43-.69s2.44-.63,3.82-1a32.05,32.05,0,0,0,3.57-1c.57-.24,1.43-.63,1.91-.87a12.54,12.54,0,0,0,2.6-3.21c.95-1.53,2.21-2.67,2.78-2.52l2,.52a25.22,25.22,0,0,1,2.61,1c.91.38,2.31,1,3.13,1.47s2.14,1.06,2.95,1.39a21.39,21.39,0,0,0,2.6.87c.63.15,1.57.34,2.09.43l1.91.35a12.39,12.39,0,0,1,1.83.52,2.24,2.24,0,0,0,1.73-.17c.48-.29,1.22-.72,1.65-1s1.09-.67,1.48-.95l1.22-1a12.74,12.74,0,0,0,1-1,12.92,12.92,0,0,0,.95-1.31,12.09,12.09,0,0,0,.78-1.47,14.55,14.55,0,0,0,.61-1.73,1.91,1.91,0,0,1,1.21-1.22c.53-.14,1.43-.34,2-.44s2-.28,3.29-.43,3.35-.34,4.69-.43,3.61-.18,5-.18,3.82,0,5.3.08,3.83.21,5.21.35,3.57.34,4.87.44,3.32.33,4.51.52A46.87,46.87,0,0,1,230,10.17a11.48,11.48,0,0,1,5,3.3c.9,1.25,3.9.27,6.68-2.17s7.7-4.43,10.94-4.43S261.42,5.15,265,3.05,273.94-.38,276.9.1s8.32,1.14,11.9,1.47a44.39,44.39,0,0,1,10.08,2.09A50.49,50.49,0,0,1,307.47,9a8,8,0,0,0,9.82-.61c2.63-2.45,7.32-3.77,10.42-2.95a26.53,26.53,0,0,1,10.08,5.9c2.43,2.44,5.28,4.59,6.33,4.78a23.07,23.07,0,0,0,2.52.35,7.39,7.39,0,0,1,1.39.17,10.31,10.31,0,0,1,1.3.35,6.16,6.16,0,0,0,.61.17c.05,0,.6.12,1.21.26a17.94,17.94,0,0,0,2.26.35,7.54,7.54,0,0,1,2.09.52,12.13,12.13,0,0,1,1.74,1c.42.32,1.13.9,1.56,1.31a11.19,11.19,0,0,0,1.61,1.22c.46.26,2.13,1,3.73,1.64s4,1.71,5.26,2.35a27.62,27.62,0,0,0,3.12,1.39,12.06,12.06,0,0,0,1.65.3,5.39,5.39,0,0,0,1.7-.13,9.52,9.52,0,0,1,1.3-.26,2.71,2.71,0,0,1,.87.09c.21.07,1.23.54,2.26,1s2.72,1.23,3.77,1.61a26.76,26.76,0,0,0,4.17,1l2.34.35c.05,0,.64.16,1.31.34a4.78,4.78,0,0,1,1.57.7,5.78,5.78,0,0,0,2.34.44,27.56,27.56,0,0,1,4,.52c1.09.23.69.74,1.72,1.13a6.09,6.09,0,0,0,3,.35,12,12,0,0,1,2.31-.44,12.89,12.89,0,0,1,2.38.09,11.39,11.39,0,0,1,2.35.6,8,8,0,0,1,2,1.22,4.73,4.73,0,0,1,1.07,1.3l.24.69a1,1,0,0,1-.12.54l-.15.16-.15.17a3.64,3.64,0,0,1-1.69.35h-2.66c-.67,0-1.32-.33-2-.35h-.63a8.48,8.48,0,0,1-1.74.22h-.28c-.29,0-.59,0-.88,0s-.58-.26-.81-.23l-.22,0a33.45,33.45,0,0,1-4.26.37h-3.13l-9.42,0-9.53,0c-3.17,0-6.35.28-9.52.26-2.75,0-5.59-.34-8.48-.34l-8.72,0c-2.91,0-5.81,0-8.63,0H339c-2.95-.06-6.4-.15-7.66-.2s-3.32,0-4.57.05-3.31.14-4.57.16l-4.56,0c-1.26,0-3.37,0-4.68,0l-1.18,0H308.3l-3.53,0c-1.19,0-2.4-.22-3.64-.22-3,.06-6,.31-9,.31s-5.89,0-8.82,0l-8.78-.08c-2.95,0-5.91-.71-8.87-.7-2.55,0-5.08.72-7.64.74h-7.66l-7.64,0c-2.54,0-5.05,0-7.58,0l-1.56,0a5.2,5.2,0,0,0-4.6-.09l-4.17,0-5.11,0H218c-1.81,0-3.39,0-3.52,0l-.7,0-.69,0c-.14,0-1.47,0-3,0s-4,.06-5.49.12-4,.07-5.49,0-4-.11-5.48-.11-2.66-.19-2.57-.42a1.37,1.37,0,0,0,.09-.69c-.05-.14-.36,0-.67.4a4.47,4.47,0,0,1-.75.73,17.81,17.81,0,0,1-2.15,0l-1,0-3.17.05c-1.06,0-2.11-.14-3.13-.13h-1a41.18,41.18,0,0,1-6.65-.47l-2.43,0c-2.43,0-4.9.47-7.36.45s-4.92,0-7.37,0H153c-2.69,0-4.92,0-5,0h-.12l-.12,0h-.12a3,3,0,0,1-.46-.48h-.42c-.42,0-1.27.55-1.68.54l-1.3,0H142.5c-2.67.06-5.4-.14-8.15-.14s-5.51.23-8.24.21-3.09,1.08-5.69,1.08-5.12,0-7.49.08c-1.76,0-3.52,0-5.3,0s-3.53,0-5.3,0-5.87-1.13-7.65-1.15l-1.78,0c-2,0-3.57-.07-3.6-.08l-.08,0-.09,0H89s-.5.14-1.07.33h-.5c-2.14,0-2.66-.29-1.54-.29H82.5c-3.35.07-6.66-.19-10-.15s-5,1.21-8.34,1.22-4-.83-7.35-.83H53.47l-7-.32-.29-.05-.27,0-.28,0a.79.79,0,0,0-.21,0l-.2,0-.21,0s-.32.05-.64.09L44,39,43,39c-.36,0-.72-.22-1.05-.22h-.35a46,46,0,0,1-5,.53H34.41l-6.4,0c-2.12,0-4.22.23-6.34.23s-4.2-.22-6.31-.19l-3.54,0c-1.21,0-2.45-.28-3.64-.27s-2.36.29-3.41.24L3.71,39.3a4.39,4.39,0,0,1-1.81-.47c0-.12,0-.39,0-.59Z"></path><path class="cls-1" d="M335.74,137c.87,0,2.13.15,2.13-1.14,0-1-.78-1.09-1.52-1.09H334.6V137Zm2.86,3.51h-.89L336,137.6H334.6v2.9h-.73v-6.29h2.65c1.61,0,2.16.62,2.16,1.66,0,1.24-.84,1.7-1.92,1.73Zm1.85-3.15a4.59,4.59,0,1,0-4.57,4.91,4.63,4.63,0,0,0,4.57-4.91m-10,0a5.44,5.44,0,1,1,5.45,5.66,5.55,5.55,0,0,1-5.45-5.66"></path></g></g></svg>